<svg xmlns="http://www.w3.org/2000/svg" viewBox="0 0 64 64">
  <rect width="64" height="64" rx="10" fill="#FFFAF3"/>
  <g fill="#C4694A">
    <ellipse cx="17" cy="46" rx="5" ry="2.4" transform="rotate(-15 17 46)"/>
    <ellipse cx="13" cy="38" rx="5" ry="2.4" transform="rotate(-35 13 38)"/>
    <ellipse cx="11" cy="30" rx="5" ry="2.4" transform="rotate(-55 11 30)"/>
    <ellipse cx="13" cy="22" rx="5" ry="2.4" transform="rotate(-75 13 22)"/>
    <ellipse cx="19" cy="15" rx="5" ry="2.4" transform="rotate(-100 19 15)"/>
    <ellipse cx="47" cy="46" rx="5" ry="2.4" transform="rotate(15 47 46)"/>
    <ellipse cx="51" cy="38" rx="5" ry="2.4" transform="rotate(35 51 38)"/>
    <ellipse cx="53" cy="30" rx="5" ry="2.4" transform="rotate(55 53 30)"/>
    <ellipse cx="51" cy="22" rx="5" ry="2.4" transform="rotate(75 51 22)"/>
    <ellipse cx="45" cy="15" rx="5" ry="2.4" transform="rotate(100 45 15)"/>
  </g>
  <text x="32" y="40" text-anchor="middle" font-family="Georgia, serif" font-size="22" font-weight="400" fill="#1a1a1a" font-style="italic">R</text>
</svg>
